# xmcd
#
# Track frame offsets:
# 150
# 18671
# 39926
# 60346
# 77483
# 93345
# 111940
# 134963
# 151051
# 170611
# 184400
# 211435
# 231034
# 248283
# 272338
# 285715
# 301952
# 325050
#
# Disc length: 4636 seconds
#
# Revision: 5
# Processed by: cddbd v1.5.2PL0 Copyright (c) Steve Scherf et al.
# Submitted via: TinyPlayer 2.8
#
DISCID=ec121a12
DTITLE=Various Artist - Storytellers, Volume 2
DYEAR=2001
DGENRE=Folk
TTITLE0=David Gray - This Year's Love
TTITLE1=Eva Cassidy - Fields of Gold
TTITLE2=Mary Chapin Carpenter - Stones in the Road
TTITLE3=Kirsty MacColl - A New England
TTITLE4=Billy Bragg - Levi Stubbs' Tears
TTITLE5=Janis Ian - Jesse
TTITLE6=Emmylou Harris - Sweet Old World
TTITLE7=Sharon Shannon with Jackson Browne - A Man of Constant Sorrow
TTITLE8=Norma Waterson - Black Muddy River
TTITLE9=Bert Jansch - Strolling Down the Highway
TTITLE10=John Prine - Lake Marie
TTITLE11=Paul Brady - The Long Goodbye
TTITLE12=Harry Chapin - Dancin' Boy
TTITLE13=Joan Baez - And the Band Played Waltzing Matilda
TTITLE14=Kate and Anna McGarrigle - My Town
TTITLE15=Sean Keane - I'm No Stranger to the Rain
TTITLE16=The Byrds - Chestnut Mare
TTITLE17=Bob Dylan - Bob Dylan's Dream
EXTD=UPC: 5019148629511 - Catalogue number: GRACD321 - Label: Grapevine Records - ASIN: B00005MHVU - Release Date: 2001 07 23 - Discogs:  - MUSICBRAINZ_ALBUMID:  - Location: ;
EXTT0=
EXTT1=
EXTT2=
EXTT3=
EXTT4=
EXTT5=
EXTT6=
EXTT7=
EXTT8=
EXTT9=
EXTT10=
EXTT11=
EXTT12=
EXTT13=
EXTT14=
EXTT15=
EXTT16=
EXTT17=
PLAYORDER=
